<svg width="302" height="50" viewBox="0 0 302 50" fill="none" xmlns="http://www.w3.org/2000/svg">
<g clip-path="url(#clip0)">
<path d="M301.433 32.8147C301.292 32.8147 301.15 32.7621 301.026 32.657L285.146 16.8021L269.267 32.657C269.054 32.8848 268.682 32.8848 268.47 32.657C268.258 32.4293 268.258 32.0789 268.47 31.8686L284.757 15.6108C284.969 15.383 285.341 15.383 285.554 15.6108L301.841 31.8686C302.053 32.0964 302.053 32.4468 301.841 32.657C301.734 32.7621 301.575 32.8147 301.433 32.8147Z" fill="#748690"/>
<path d="M293.361 49.9474H276.932C276.613 49.9474 276.366 49.7022 276.366 49.3868V33.5494H273.533C273.303 33.5494 273.108 33.4092 273.02 33.199C272.931 32.9888 272.984 32.7435 273.144 32.5858L284.757 20.9881C284.969 20.7778 285.341 20.7778 285.554 20.9881L297.167 32.5858C297.326 32.7435 297.379 32.9888 297.291 33.199C297.202 33.4092 296.99 33.5494 296.778 33.5494H293.945V49.3868C293.927 49.6846 293.679 49.9474 293.361 49.9474ZM277.499 48.8087H292.812V32.9712C292.812 32.6559 293.06 32.4106 293.378 32.4106H295.414L285.164 22.1618L274.914 32.4106H276.95C277.268 32.4106 277.516 32.6559 277.516 32.9712V48.8087H277.499Z" fill="#748690"/>
<path d="M296.778 28.1534C296.459 28.1534 296.211 27.9082 296.211 27.5928V16.5557H293.166V23.4408C293.166 23.7561 292.918 24.0014 292.6 24.0014C292.281 24.0014 292.033 23.7561 292.033 23.4408V15.9951C292.033 15.6797 292.281 15.4344 292.6 15.4344H296.76C297.079 15.4344 297.326 15.6797 297.326 15.9951V27.5928C297.326 27.9082 297.079 28.1534 296.778 28.1534Z" fill="#748690"/>
<path d="M283.536 38.7351H280.313C279.995 38.7351 279.747 38.4898 279.747 38.1745V34.9509C279.747 34.6356 279.995 34.3903 280.313 34.3903H283.536C283.854 34.3903 284.102 34.6356 284.102 34.9509V38.1745C284.102 38.4723 283.854 38.7351 283.536 38.7351ZM280.88 37.6139H282.969V35.5291H280.88V37.6139Z" fill="#748690"/>
<path d="M289.979 38.7351H286.757C286.439 38.7351 286.191 38.4898 286.191 38.1745V34.9509C286.191 34.6356 286.439 34.3903 286.757 34.3903H289.979C290.298 34.3903 290.546 34.6356 290.546 34.9509V38.1745C290.546 38.4723 290.298 38.7351 289.979 38.7351ZM287.324 37.6139H289.413V35.5291H287.324V37.6139Z" fill="#748690"/>
<path d="M283.536 45.1647H280.313C279.995 45.1647 279.747 44.9195 279.747 44.6041V41.3806C279.747 41.0652 279.995 40.8199 280.313 40.8199H283.536C283.854 40.8199 284.102 41.0652 284.102 41.3806V44.6041C284.102 44.9195 283.854 45.1647 283.536 45.1647ZM280.88 44.0435H282.969V41.9587H280.88V44.0435Z" fill="#748690"/>
<path d="M289.979 45.1647H286.757C286.439 45.1647 286.191 44.9195 286.191 44.6041V41.3806C286.191 41.0652 286.439 40.8199 286.757 40.8199H289.979C290.298 40.8199 290.546 41.0652 290.546 41.3806V44.6041C290.546 44.9195 290.298 45.1647 289.979 45.1647ZM287.324 44.0435H289.413V41.9587H287.324V44.0435Z" fill="#748690"/>
<path d="M171.686 32.8136C171.545 32.8136 171.403 32.761 171.279 32.6559L155.258 16.801L139.236 32.6559C139.006 32.8837 138.652 32.8837 138.44 32.6559C138.209 32.4282 138.209 32.0778 138.44 31.8675L154.85 15.5921C155.081 15.3644 155.435 15.3644 155.647 15.5921L172.076 31.85C172.306 32.0778 172.306 32.4282 172.076 32.6384C171.97 32.761 171.828 32.8136 171.686 32.8136Z" fill="#748690"/>
<path d="M146.388 33.4618H143.52C143.29 33.4618 143.078 33.3216 142.989 33.1114C142.901 32.9012 142.954 32.6559 143.113 32.4982L154.833 20.9005C155.063 20.6727 155.417 20.6727 155.629 20.9005L167.349 32.4982C167.508 32.6559 167.561 32.9012 167.473 33.1114C167.384 33.3216 167.172 33.4618 166.942 33.4618H164.109V40.6097H162.976H146.371L146.388 33.4618ZM162.959 33.1114C162.959 32.7961 163.206 32.5333 163.525 32.5333H165.579L155.222 22.0918L144.866 32.5333H146.919C147.238 32.5333 147.486 32.7961 147.486 33.1114V40.9776H162.923V33.1114H162.959Z" fill="#748690"/>
<path d="M166.977 28.1535C166.659 28.1535 166.411 27.9082 166.411 27.5929V16.5557H163.348V23.4408C163.348 23.7562 163.1 24.0014 162.782 24.0014C162.463 24.0014 162.215 23.7562 162.215 23.4408V15.9951C162.215 15.6798 162.463 15.4345 162.782 15.4345H166.977C167.296 15.4345 167.544 15.6798 167.544 15.9951V27.5929C167.544 27.9082 167.278 28.1535 166.977 28.1535Z" fill="#748690"/>
<path d="M158.745 36.7554H151.735C151.416 36.7554 151.168 36.5102 151.168 36.1948V32.9713C151.168 32.6559 151.416 32.4106 151.735 32.4106H158.745C159.064 32.4106 159.312 32.6559 159.312 32.9713V36.1948C159.329 36.4926 159.064 36.7554 158.745 36.7554ZM152.301 35.6342H158.179V33.5319H152.301V35.6342Z" fill="#748690"/>
<path d="M48.9141 41.5557H32.3262C32.0075 41.5557 31.7596 41.4331 31.7596 41.2579V32.7085C31.7596 32.5508 32.0075 32.4106 32.3262 32.4106H48.9141C49.2328 32.4106 49.4806 32.5333 49.4806 32.7085V41.2579C49.4806 41.4331 49.2151 41.5557 48.9141 41.5557ZM32.8927 40.9776H48.3299V33.0238H32.8927V40.9776Z" fill="#748690"/>
<path d="M52.3486 33.5494H28.8917C28.6616 33.5494 28.4492 33.4092 28.3606 33.199C28.2721 32.9888 28.3252 32.7435 28.4846 32.5858L40.2041 20.9881C40.4343 20.7603 40.7883 20.7603 41.0008 20.9881L52.7203 32.5858C52.8797 32.7435 52.9328 32.9888 52.8442 33.199C52.7734 33.4092 52.5787 33.5494 52.3486 33.5494ZM30.2726 32.4282H50.9677L40.6113 22.1794L30.2726 32.4282Z" fill="#748690"/>
<path d="M81.2226 49.9474L21.2439 49.965C20.7836 49.965 20.3942 49.7197 20.3942 49.4044V41.2053C20.3942 40.89 20.7659 40.6447 21.2439 40.6447H80.5498C81.0101 40.6447 81.3996 40.89 81.3996 41.2053V49.4044C81.3996 49.7022 81.6829 49.9474 81.2226 49.9474ZM21.5272 48.8262H80.2666V41.7484H21.5272V48.8262Z" fill="#748690"/>
<path d="M58.3853 41.7484C58.0667 41.7484 57.8188 41.5031 57.8188 41.1878V27.6804C57.8188 27.3651 58.0667 27.1198 58.3853 27.1198C58.704 27.1198 58.9518 27.3651 58.9518 27.6804V41.1878C58.9518 41.5031 58.704 41.7484 58.3853 41.7484Z" fill="#748690"/>
<path d="M58.3853 34.2151C58.2437 34.2151 58.1021 34.1626 57.9781 34.0575C57.748 33.8297 57.748 33.4793 57.9781 33.2691L61.5011 29.7828C61.7312 29.555 62.0853 29.555 62.2977 29.7828C62.5279 30.0105 62.5279 30.3609 62.2977 30.5711L58.7748 34.0575C58.6863 34.1626 58.5269 34.2151 58.3853 34.2151Z" fill="#748690"/>
<path d="M58.3853 37.0357C58.2437 37.0357 58.1021 36.9831 57.9781 36.878L54.4552 33.3917C54.2251 33.1639 54.2251 32.8135 54.4552 32.6033C54.6853 32.3756 55.0394 32.3756 55.2518 32.6033L58.7748 36.0896C59.0049 36.3174 59.0049 36.6678 58.7748 36.878C58.6863 36.9831 58.5269 37.0357 58.3853 37.0357Z" fill="#748690"/>
<path d="M58.3854 28.2411C56.8806 28.2411 55.6591 27.0323 55.6591 25.5431C55.6591 24.054 56.8806 22.8452 58.3854 22.8452C59.8901 22.8452 61.1117 24.054 61.1117 25.5431C61.1117 27.0323 59.8901 28.2411 58.3854 28.2411ZM58.3854 23.9839C57.5179 23.9839 56.7921 24.6847 56.7921 25.5606C56.7921 26.4191 57.5002 27.1374 58.3854 27.1374C59.2705 27.1374 59.9787 26.4366 59.9787 25.5606C59.9787 24.6847 59.2528 23.9839 58.3854 23.9839Z" fill="#748690"/>
<path d="M253.582 41.0652C253.263 41.0652 253.015 40.8199 253.015 40.5046V26.9972C253.015 26.6819 253.263 26.4366 253.582 26.4366C253.9 26.4366 254.148 26.6819 254.148 26.9972V40.5046C254.148 40.8199 253.9 41.0652 253.582 41.0652Z" fill="#748690"/>
<path d="M253.582 33.5319C253.44 33.5319 253.298 33.4793 253.174 33.3742C252.944 33.1465 252.944 32.7961 253.174 32.5859L256.697 29.082C256.927 28.8543 257.281 28.8543 257.494 29.082C257.724 29.3098 257.724 29.6601 257.494 29.8704L253.971 33.3567C253.865 33.4793 253.723 33.5319 253.582 33.5319Z" fill="#748690"/>
<path d="M253.581 36.3525C253.44 36.3525 253.298 36.2999 253.174 36.1948L249.651 32.7084C249.421 32.4807 249.421 32.1303 249.651 31.9201C249.882 31.6923 250.236 31.6923 250.448 31.9201L253.971 35.4064C254.201 35.6342 254.201 35.9845 253.971 36.1948C253.865 36.2824 253.723 36.3525 253.581 36.3525Z" fill="#748690"/>
<path d="M253.582 27.5578C252.077 27.5578 250.855 26.349 250.855 24.8598C250.855 23.3707 252.077 22.1619 253.582 22.1619C255.086 22.1619 256.308 23.3707 256.308 24.8598C256.308 26.349 255.086 27.5578 253.582 27.5578ZM253.582 23.2831C252.714 23.2831 251.988 23.9839 251.988 24.8598C251.988 25.7183 252.696 26.4366 253.582 26.4366C254.467 26.4366 255.175 25.7358 255.175 24.8598C255.157 24.0014 254.449 23.2831 253.582 23.2831Z" fill="#748690"/>
<path d="M114.841 49.9474H98.2532C97.9345 49.9474 97.6866 49.7022 97.6866 49.3868V32.9713C97.6866 32.6559 97.9345 32.4106 98.2532 32.4106H114.841C115.16 32.4106 115.408 32.6559 115.408 32.9713V49.3868C115.408 49.6846 115.16 49.9474 114.841 49.9474ZM98.8197 48.8087H114.257V33.5319H98.8197V48.8087Z" fill="#748690"/>
<path d="M132.261 49.9474H80.8331C80.5144 49.9474 80.2666 49.7022 80.2666 49.3868V27.6629C80.2666 27.3476 80.5144 27.1023 80.8331 27.1023H100.183C100.413 27.1023 100.625 27.2424 100.714 27.4527C100.802 27.6629 100.749 27.9082 100.59 28.0659L96.1996 32.4106H116.895L112.504 28.0659C112.345 27.9082 112.292 27.6629 112.38 27.4527C112.469 27.2424 112.681 27.1023 112.911 27.1023H132.261C132.58 27.1023 132.828 27.3476 132.828 27.6629V49.3868C132.828 49.6846 132.58 49.9474 132.261 49.9474ZM81.3996 48.8087H131.695V28.2235H114.275L118.665 32.5683C118.824 32.726 118.877 32.9712 118.789 33.1815C118.7 33.3917 118.488 33.5319 118.258 33.5319H94.8187C94.5885 33.5319 94.3761 33.3917 94.2876 33.1815C94.1991 32.9712 94.2522 32.726 94.4115 32.5683L98.8019 28.2235H81.3819V48.8087H81.3996Z" fill="#748690"/>
<path d="M118.276 33.5319H94.8187C94.5886 33.5319 94.3762 33.3917 94.2876 33.1815C94.1991 32.9713 94.2522 32.726 94.4116 32.5683L106.131 20.9706C106.361 20.7428 106.715 20.7428 106.928 20.9706L118.647 32.5683C118.807 32.726 118.86 32.9713 118.771 33.1815C118.718 33.3917 118.506 33.5319 118.276 33.5319ZM96.1996 32.4106H116.895L106.538 22.1619L96.1996 32.4106Z" fill="#748690"/>
<path d="M137.678 28.2236H112.911C112.752 28.2236 112.61 28.171 112.504 28.0659L106.538 22.1794L100.59 28.0659C100.484 28.171 100.342 28.2236 100.183 28.2236H75.4159C75.2212 28.2236 75.0619 28.136 74.9556 27.9783C74.8494 27.8206 74.8317 27.6279 74.8848 27.4527L80.302 13.0694C80.3906 12.8416 80.603 12.7015 80.8331 12.7015H132.261C132.491 12.7015 132.704 12.8416 132.792 13.0694L138.209 27.4527C138.28 27.6279 138.245 27.8206 138.139 27.9783C138.032 28.136 137.855 28.2236 137.678 28.2236ZM113.142 27.1023H136.846L131.872 13.8402H81.2226L76.2303 27.1023H99.935L106.131 20.9706C106.361 20.7428 106.715 20.7428 106.928 20.9706L113.142 27.1023Z" fill="#748690"/>
<path d="M90.5876 38.63H87.3302C87.0115 38.63 86.7637 38.3847 86.7637 38.0694V34.8458C86.7637 34.5305 87.0115 34.2852 87.3302 34.2852H90.5876C90.9062 34.2852 91.1541 34.5305 91.1541 34.8458V38.0694C91.1541 38.3672 90.9062 38.63 90.5876 38.63ZM87.8967 37.4913H90.0034V35.4065H87.8967V37.4913Z" fill="#748690"/>
<path d="M90.5876 44.5164H87.3302C87.0115 44.5164 86.7637 44.2711 86.7637 43.9558V40.7322C86.7637 40.4169 87.0115 40.1716 87.3302 40.1716H90.5876C90.9062 40.1716 91.1541 40.4169 91.1541 40.7322V43.9558C91.1541 44.2711 90.9062 44.5164 90.5876 44.5164ZM87.8967 43.3952H90.0034V41.3104H87.8967V43.3952Z" fill="#748690"/>
<path d="M125.764 38.63H122.507C122.188 38.63 121.94 38.3847 121.94 38.0694V34.8458C121.94 34.5305 122.188 34.2852 122.507 34.2852H125.764C126.083 34.2852 126.33 34.5305 126.33 34.8458V38.0694C126.33 38.3672 126.083 38.63 125.764 38.63ZM123.073 37.4913H125.18V35.4065H123.073V37.4913Z" fill="#748690"/>
<path d="M125.764 44.5164H122.507C122.188 44.5164 121.94 44.2711 121.94 43.9558V40.7322C121.94 40.4169 122.188 40.1716 122.507 40.1716H125.764C126.083 40.1716 126.33 40.4169 126.33 40.7322V43.9558C126.33 44.2711 126.083 44.5164 125.764 44.5164ZM123.073 43.3952H125.18V41.3104H123.073V43.3952Z" fill="#748690"/>
<path d="M109.229 49.9474H103.865C103.546 49.9474 103.299 49.7021 103.299 49.3868V36.7379C103.299 36.4225 103.546 36.1772 103.865 36.1772H109.229C109.548 36.1772 109.796 36.4225 109.796 36.7379V49.3868C109.796 49.6846 109.548 49.9474 109.229 49.9474ZM104.432 48.8086H108.663V37.281H104.432V48.8086Z" fill="#748690"/>
<path d="M212.985 50.246H196.397C196.079 50.246 195.831 50.0007 195.831 49.6853V33.2698C195.831 32.9544 196.079 32.7092 196.397 32.7092H212.985C213.304 32.7092 213.552 32.9544 213.552 33.2698V49.6853C213.552 49.9832 213.304 50.246 212.985 50.246ZM196.964 49.1072H212.401V33.8304H196.964V49.1072Z" fill="#748690"/>
<path d="M230.405 50.2459H178.977C178.659 50.2459 178.411 50.0007 178.411 49.6853V27.9614C178.411 27.6461 178.659 27.4008 178.977 27.4008H198.327C198.557 27.4008 198.77 27.541 198.858 27.7512C198.947 27.9614 198.893 28.2067 198.734 28.3644L194.344 32.7092H215.039L210.648 28.3644C210.489 28.2067 210.436 27.9614 210.525 27.7512C210.613 27.541 210.825 27.4008 211.056 27.4008H230.405C230.724 27.4008 230.972 27.6461 230.972 27.9614V49.6853C230.972 49.9832 230.724 50.2459 230.405 50.2459ZM179.544 49.1072H229.839V28.5221H212.419L216.809 32.8668C216.968 33.0245 217.022 33.2698 216.933 33.48C216.845 33.6902 216.632 33.8304 216.402 33.8304H192.963C192.733 33.8304 192.52 33.6902 192.432 33.48C192.343 33.2698 192.396 33.0245 192.556 32.8668L196.946 28.5221H179.526V49.1072H179.544Z" fill="#748690"/>
<path d="M216.42 33.8304H192.963C192.733 33.8304 192.52 33.6902 192.432 33.48C192.343 33.2698 192.396 33.0245 192.556 32.8668L204.275 21.2691C204.505 21.0413 204.859 21.0413 205.072 21.2691L216.792 32.8668C216.951 33.0245 217.004 33.2698 216.915 33.48C216.862 33.6902 216.65 33.8304 216.42 33.8304ZM194.344 32.7092H215.039L204.682 22.4604L194.344 32.7092Z" fill="#748690"/>
<path d="M235.822 28.5221H211.056C210.896 28.5221 210.755 28.4695 210.648 28.3644L204.682 22.4779L198.734 28.3644C198.628 28.4695 198.486 28.5221 198.327 28.5221H173.56C173.365 28.5221 173.206 28.4345 173.1 28.2768C172.994 28.1191 172.976 27.9264 173.029 27.7512L178.446 13.3679C178.535 13.1402 178.747 13 178.977 13H230.405C230.635 13 230.848 13.1402 230.936 13.3679L236.354 27.7512C236.424 27.9264 236.389 28.1191 236.283 28.2768C236.177 28.4345 236 28.5221 235.822 28.5221ZM211.286 27.4008H234.99L230.016 14.1388H179.367L174.374 27.4008H198.079L204.275 21.2691C204.505 21.0413 204.859 21.0413 205.072 21.2691L211.286 27.4008Z" fill="#748690"/>
<path d="M188.732 38.9285H185.474C185.156 38.9285 184.908 38.6833 184.908 38.3679V35.1444C184.908 34.829 185.156 34.5837 185.474 34.5837H188.732C189.05 34.5837 189.298 34.829 189.298 35.1444V38.3679C189.298 38.6657 189.05 38.9285 188.732 38.9285ZM186.041 37.7898H188.148V35.705H186.041V37.7898Z" fill="#748690"/>
<path d="M188.732 44.8149H185.474C185.156 44.8149 184.908 44.5697 184.908 44.2543V41.0308C184.908 40.7154 185.156 40.4702 185.474 40.4702H188.732C189.05 40.4702 189.298 40.7154 189.298 41.0308V44.2543C189.298 44.5697 189.05 44.8149 188.732 44.8149ZM186.041 43.6937H188.148V41.6089H186.041V43.6937Z" fill="#748690"/>
<path d="M223.908 38.9285H220.651C220.332 38.9285 220.084 38.6833 220.084 38.3679V35.1444C220.084 34.829 220.332 34.5837 220.651 34.5837H223.908C224.227 34.5837 224.475 34.829 224.475 35.1444V38.3679C224.475 38.6657 224.227 38.9285 223.908 38.9285ZM221.217 37.7898H223.324V35.705H221.217V37.7898Z" fill="#748690"/>
<path d="M223.908 44.8149H220.651C220.332 44.8149 220.084 44.5697 220.084 44.2543V41.0308C220.084 40.7154 220.332 40.4702 220.651 40.4702H223.908C224.227 40.4702 224.475 40.7154 224.475 41.0308V44.2543C224.475 44.5697 224.227 44.8149 223.908 44.8149ZM221.217 43.6937H223.324V41.6089H221.217V43.6937Z" fill="#748690"/>
<path d="M207.373 50.2459H202.009C201.691 50.2459 201.443 50.0007 201.443 49.6853V37.0364C201.443 36.721 201.691 36.4758 202.009 36.4758H207.373C207.692 36.4758 207.94 36.721 207.94 37.0364V49.6853C207.94 49.9831 207.692 50.2459 207.373 50.2459ZM202.576 49.1072H206.807V37.5795H202.576V49.1072Z" fill="#748690"/>
<path d="M179.051 49.9124L132.367 49.9299C132.013 49.9299 131.712 49.6847 131.712 49.3693V41.1703C131.712 40.8549 132.013 40.6097 132.367 40.6097H178.537C178.891 40.6097 179.192 40.8549 179.192 41.1703V49.3693C179.175 49.6847 179.405 49.9124 179.051 49.9124ZM132.58 48.8087H178.29V41.7309H132.58V48.8087Z" fill="#748690"/>
<path d="M277.145 49.9124L230.461 49.9299C230.107 49.9299 229.806 49.6847 229.806 49.3693V41.1703C229.806 40.8549 230.107 40.6097 230.461 40.6097H276.631C276.985 40.6097 277.286 40.8549 277.286 41.1703V49.3693C277.286 49.6847 277.516 49.9124 277.145 49.9124ZM230.691 48.8087H276.401V41.7309H230.691V48.8087Z" fill="#748690"/>
</g>
<defs>
<clipPath id="clip0">
<rect width="302" height="50" fill="white"/>
</clipPath>
</defs>
</svg>
