<?xml version="1.0" encoding="iso-8859-1"?>
<!-- Generator: Adobe Illustrator 19.0.0, SVG Export Plug-In . SVG Version: 6.00 Build 0)  -->
<svg version="1.1" id="Layer_1" xmlns="http://www.w3.org/2000/svg" xmlns:xlink="http://www.w3.org/1999/xlink" x="0px" y="0px"
	 viewBox="0 0 512 512" style="enable-background:new 0 0 512 512;" xml:space="preserve">
<g>
	<g>
		<g>
			<path d="M426.667,234.665c-47.052,0-85.333,38.281-85.333,85.333c0,43.594,69,134.885,76.865,145.156
				c2.021,2.635,5.146,4.177,8.469,4.177s6.448-1.542,8.469-4.177C443,454.884,512,363.593,512,319.999
				C512,272.947,473.719,234.665,426.667,234.665z M426.667,341.332c-11.76,0-21.333-9.573-21.333-21.333
				c0-11.76,9.573-21.333,21.333-21.333S448,308.238,448,319.999C448,331.759,438.427,341.332,426.667,341.332z" fill="lightgrey"/>
			<path d="M141.594,79.645l-128-36.573c-3.208-0.906-6.688-0.271-9.354,1.74C1.573,46.832,0,49.988,0,53.332v320
				c0,4.76,3.156,8.948,7.74,10.26l128,36.573c0.958,0.271,1.948,0.406,2.927,0.406c2.292,0,4.552-0.74,6.427-2.146
				c2.667-2.021,4.24-5.177,4.24-8.521v-320C149.333,85.145,146.177,80.957,141.594,79.645z" fill="lightgrey"/>
			<path d="M294.427,50.905c-2.677-2.01-6.156-2.646-9.354-1.74L178.406,79.645c-4.583,1.313-7.74,5.5-7.74,10.26v320
				c0,3.344,1.573,6.5,4.24,8.521c1.875,1.406,4.135,2.146,6.427,2.146c0.979,0,1.969-0.135,2.927-0.406l106.667-30.479
				c4.583-1.313,7.74-5.5,7.74-10.26v-320C298.667,56.082,297.094,52.926,294.427,50.905z" fill="lightgrey"/>
			<path d="M455.75,217.478c3.198,0.896,6.667,0.271,9.344-1.75c2.667-2.01,4.24-5.167,4.24-8.51V95.999
				c0-4.76-3.156-8.948-7.74-10.26l-128-36.573c-3.188-0.906-6.677-0.271-9.354,1.74c-2.667,2.021-4.24,5.177-4.24,8.521v193.323
				c0,4.656,3.01,8.771,7.448,10.167c1.063,0.344,2.146,0.5,3.219,0.5c3.406,0,6.688-1.635,8.729-4.531
				C365.01,222.426,411.271,204.832,455.75,217.478z" fill="lightgrey"/>
		</g>
	</g>
</g>
<g>
</g>
<g>
</g>
<g>
</g>
<g>
</g>
<g>
</g>
<g>
</g>
<g>
</g>
<g>
</g>
<g>
</g>
<g>
</g>
<g>
</g>
<g>
</g>
<g>
</g>
<g>
</g>
<g>
</g>
</svg>
